<svg class="svg-icon"
     style="width: 1em; height: 1em; vertical-align: middle; fill: currentColor; overflow: hidden;"
     viewBox="0 0 1024 1024"
     version="1.1"
     xmlns="http://www.w3.org/2000/svg">
  <path
    d="M476 144.083v734.333c-16.153-10.798-44.438-31.782-90.53-71.775-51.958-45.083-99.188-90.495-116.902-108.209A80 80 0 0 0 212 675h-90c-22.056 0-40-17.944-40-40V399c0-22.056 17.944-40 40-40h90a79.995 79.995 0 0 0 56.568-23.432c1.888-1.887 4.048-4.052 6.457-6.466 22.595-22.644 69.611-69.763 116.865-113.335 41.864-38.602 68.244-59.978 84.11-71.684
    m2-90.393c-43.078 0-223.667 182.977-266 225.31h-90C55.726 279 2 332.726 2 399v236c0 66.274 53.726 120 120 120h90c48.667 48.666 222.922 211.801 266 211.801s78-34.922 78-78V131.69c0-43.078-34.922-78-78-78z"
    fill="#999999"
  />
</svg>