<?xml version="1.0" standalone="no"?>
<!DOCTYPE svg PUBLIC "-//W3C//DTD SVG 20010904//EN"
 "http://www.w3.org/TR/2001/REC-SVG-20010904/DTD/svg10.dtd">
<svg version="1.0" xmlns="http://www.w3.org/2000/svg"
 width="600.000000pt" height="663.000000pt" viewBox="0 0 600.000000 663.000000"
 preserveAspectRatio="xMidYMid meet">
<g transform="translate(0.000000,663.000000) scale(0.100000,-0.100000)"
fill="#000000" stroke="none">
<path d="M4875 6623 c-11 -3 -49 -16 -85 -30 -192 -76 -342 -234 -406 -429
-25 -78 -29 -104 -29 -209 0 -97 4 -134 23 -195 75 -241 280 -425 533 -476
425 -86 831 241 831 670 0 303 -186 557 -479 655 -53 18 -85 21 -215 20 -84
-1 -162 -3 -173 -6z"/>
<path d="M1640 5317 c-29 -14 -50 -52 -49 -87 0 -14 55 -153 122 -309 l122
-284 62 -13 c113 -23 177 -86 223 -218 10 -31 52 -131 91 -222 59 -135 75
-164 88 -158 9 4 268 11 576 15 751 11 700 7 889 63 87 26 196 61 243 78 93
33 127 32 145 -7 12 -26 -31 -355 -102 -785 -45 -270 -73 -377 -136 -510 -72
-153 -134 -202 -269 -215 -97 -9 -504 10 -958 45 -656 51 -679 41 -857 -375
-72 -167 -209 -534 -345 -925 -112 -320 -475 -1388 -475 -1397 0 -3 71 -3 158
-1 130 3 164 6 196 22 63 31 101 79 131 164 222 628 599 1621 667 1756 24 48
72 102 108 121 57 30 109 27 395 -20 339 -56 1042 -156 1291 -184 348 -40 532
-23 713 64 83 40 108 59 186 138 102 104 161 205 215 364 18 54 83 357 159
740 72 356 157 774 190 928 117 550 130 636 112 755 -24 151 -97 254 -217 301
-79 31 -223 31 -336 1 -43 -12 -396 -163 -785 -336 -390 -172 -726 -319 -748
-324 -22 -6 -269 -27 -548 -47 -421 -31 -510 -35 -523 -24 -9 7 -29 36 -45 65
-16 28 -37 58 -47 66 -20 18 -218 108 -236 108 -8 0 -25 -9 -39 -20 -14 -11
-28 -16 -31 -11 -6 9 -256 586 -284 654 -17 41 -17 42 -52 24z m107 -260 c31
-75 34 -97 12 -97 -10 0 -64 113 -75 157 -5 20 -3 24 11 21 12 -2 30 -31 52
-81z"/>
<path d="M1784 4571 c-54 -25 -84 -73 -84 -138 0 -72 18 -158 51 -244 46 -119
93 -150 196 -129 104 22 153 92 153 218 0 215 -161 363 -316 293z"/>
<path d="M5785 4426 c-44 -19 -83 -69 -99 -129 -8 -29 -86 -344 -174 -702
-253 -1025 -326 -1277 -428 -1475 -125 -245 -268 -368 -500 -432 -67 -18 -106
-21 -264 -21 -102 0 -230 5 -285 12 -299 36 -673 96 -1130 181 -477 88 -463
86 -493 70 -33 -18 -86 -121 -86 -167 0 -22 8 -42 25 -58 21 -21 58 -30 274
-70 138 -25 258 -49 268 -51 31 -9 57 -46 57 -81 0 -19 -97 -348 -216 -732
-215 -696 -215 -698 -200 -734 l15 -37 85 0 c78 0 87 2 100 22 12 19 193 594
343 1088 70 233 114 364 125 378 29 35 55 34 337 -17 152 -28 321 -57 376 -66
354 -53 621 -46 810 22 132 47 154 47 186 3 10 -14 71 -191 135 -395 263 -839
313 -995 324 -1014 9 -19 20 -21 94 -21 91 0 102 6 112 56 6 29 -39 175 -376
1239 l-107 340 22 25 c104 115 221 320 289 503 40 106 108 354 181 657 26 107
119 483 207 835 112 450 157 649 153 671 -7 42 -41 83 -81 100 -40 17 -41 17
-79 0z"/>
<path d="M2132 4188 c-15 -63 -54 -115 -110 -144 l-41 -22 31 -6 c17 -3 45 -6
62 -6 29 0 35 -5 55 -49 12 -27 29 -55 38 -63 17 -14 106 -18 119 -6 5 6 -132
348 -140 348 -1 0 -7 -23 -14 -52z"/>
<path d="M0 3635 l0 -235 1581 0 c1156 0 1592 3 1620 11 148 45 208 251 108
372 -16 19 -52 47 -81 61 l-52 26 -1588 0 -1588 0 0 -235z"/>
<path d="M220 3227 c-14 -7 -33 -28 -42 -47 -17 -33 -18 -130 -18 -1607 l0
-1573 195 0 195 0 0 1580 c0 1719 3 1622 -55 1648 -35 16 -242 16 -275 -1z"/>
</g>
</svg>
