<?xml version="1.0" standalone="no"?>
<!DOCTYPE svg PUBLIC "-//W3C//DTD SVG 20010904//EN"
 "http://www.w3.org/TR/2001/REC-SVG-20010904/DTD/svg10.dtd">
<svg version="1.0" xmlns="http://www.w3.org/2000/svg"
 width="600.000000pt" height="663.000000pt" viewBox="0 0 600.000000 663.000000"
 preserveAspectRatio="xMidYMid meet">
<g transform="translate(0.000000,663.000000) scale(0.100000,-0.100000)"
fill="#000000" stroke="none">
<path d="M2340 6614 c-223 -60 -424 -240 -504 -452 -44 -117 -50 -153 -50
-282 0 -137 14 -207 64 -316 94 -208 284 -367 508 -425 108 -28 269 -28 377 1
234 63 431 236 521 458 88 217 66 469 -57 680 -54 92 -190 220 -284 269 -136
70 -194 83 -369 82 -99 0 -170 -5 -206 -15z"/>
<path d="M3635 5686 c-178 -57 -321 -215 -374 -416 -10 -41 -22 -108 -25 -149
l-6 -73 59 53 c33 30 109 100 169 156 122 113 159 135 249 153 166 33 338 -68
386 -224 6 -23 12 -75 11 -116 0 -60 -6 -87 -27 -134 -31 -67 -63 -99 -374
-379 -117 -105 -213 -197 -213 -204 0 -8 6 -26 14 -41 30 -59 138 -359 175
-486 54 -184 85 -327 120 -551 50 -325 56 -394 36 -462 -22 -76 -56 -120 -103
-132 -110 -29 -384 -22 -982 25 -535 43 -640 35 -744 -57 -116 -103 -309 -598
-817 -2104 -99 -291 -179 -531 -179 -532 0 -11 284 -1 323 11 78 23 128 75
159 166 25 72 170 471 298 820 114 311 340 881 379 957 39 77 96 119 173 129
28 3 143 -11 323 -41 339 -56 1039 -156 1300 -186 256 -29 443 -24 560 15 117
39 208 97 301 191 66 66 90 99 127 176 66 133 81 218 81 454 1 184 0 197 -42
410 -113 577 -257 1114 -403 1505 -70 188 -146 361 -274 625 -95 194 -100 202
-179 280 -88 87 -167 135 -261 160 -71 18 -185 19 -240 1z"/>
<path d="M3700 5331 c-76 -25 -84 -32 -590 -506 -118 -111 -260 -243 -316
-292 l-101 -90 -149 -7 c-82 -3 -306 -11 -499 -17 -395 -12 -419 -16 -485 -81
-120 -120 -67 -335 94 -377 26 -7 242 -12 611 -13 641 -3 599 -8 699 74 188
155 818 709 967 849 181 171 96 447 -143 464 -35 3 -74 1 -88 -4z"/>
<path d="M5790 4429 c-49 -20 -88 -68 -104 -133 -9 -33 -77 -308 -151 -611
-263 -1071 -344 -1352 -445 -1556 -114 -229 -249 -356 -452 -423 -255 -86
-591 -55 -1796 165 -466 85 -436 86 -490 -21 -36 -72 -36 -109 -1 -146 16 -17
51 -28 162 -49 428 -80 410 -75 431 -120 18 -37 43 54 -239 -860 -70 -226
-140 -453 -157 -506 -28 -91 -28 -99 -14 -133 l15 -36 85 0 c78 0 87 2 100 22
12 19 179 548 347 1103 76 249 109 348 121 362 29 36 54 34 336 -17 462 -83
601 -100 806 -100 168 0 292 22 445 78 42 15 61 18 83 10 40 -14 54 -40 93
-165 18 -59 54 -175 80 -258 26 -82 65 -204 86 -270 20 -66 65 -208 99 -315
34 -107 75 -240 92 -295 49 -161 43 -155 142 -155 141 0 142 8 30 360 -48 151
-157 500 -244 775 l-156 500 45 55 c119 147 224 344 292 553 22 65 89 319 150
565 60 246 168 681 239 967 112 448 128 525 121 558 -11 46 -35 75 -78 93 -37
16 -39 16 -73 3z"/>
<path d="M526 4024 c-8 -22 18 -78 45 -98 21 -14 76 -16 509 -16 l485 0 -36
24 c-19 13 -48 42 -63 65 l-29 41 -452 0 c-401 0 -454 -2 -459 -16z m384 -49
c0 -12 -17 -15 -94 -15 -87 0 -116 7 -99 24 3 3 48 6 100 6 76 0 93 -3 93 -15z"/>
<path d="M0 3635 l0 -235 1581 0 c1171 0 1592 3 1620 12 138 41 205 234 122
351 -16 23 -51 55 -78 72 l-48 30 -1599 3 -1598 2 0 -235z"/>
<path d="M214 3221 c-17 -11 -36 -34 -43 -52 -8 -23 -11 -460 -11 -1600 l0
-1569 195 0 195 0 0 1580 c0 1729 3 1628 -56 1650 -14 6 -76 10 -137 10 -92 0
-117 -3 -143 -19z"/>
</g>
</svg>
