<svg
    xmlns="http://www.w3.org/2000/svg"
    viewBox="0 0 195 106"
    id="vector">
    <path
        id="path"
        d="M 51.3 103.62 C 49.62 101.94 48.25 97.03 48.25 92.7 C 48.25 88.37 49.62 83.46 51.3 81.78 C 53.43 79.65 67.13 78.73 96.62 78.73 C 134.35 78.73 139.34 79.23 143.1 83.37 C 145.41 85.92 147.3 90.32 147.3 93.14 C 147.3 95.96 145.21 100.15 142.66 102.46 C 138.73 106.01 131.54 106.66 96.18 106.66 C 67.03 106.66 53.42 105.74 51.3 103.61 Z M 3.99 26.49 C 1.8 24.3 0 19.23 0 15.24 C 0 11.25 1.8 6.19 3.99 3.99 C 7.47 0.51 19.43 0 96.69 0 C 182.01 0 185.59 0.19 190.48 5.08 C 193.27 7.87 195.56 12.45 195.56 15.24 C 195.56 18.03 193.27 22.61 190.48 25.4 C 185.59 30.29 182.01 30.48 96.69 30.48 C 19.43 30.48 7.47 29.96 3.99 26.49 Z"
        fill="#000000"
        stroke-width="2.53968"/>
</svg>
