<svg
    xmlns="http://www.w3.org/2000/svg"
    viewBox="0 0 129 182"
    id="vector">
    <path
        id="path"
        d="M 3.05 179.46 C 0.8 177.21 0 154.25 0 91.9 L 0 7.39 L 6.64 3.04 C 12.6 -0.86 13.97 -0.93 19.97 2.44 L 26.66 6.19 L 27.34 59.8 L 28.02 113.41 L 40.7 108.59 C 58.08 101.99 76.94 102.4 92.71 109.75 C 106.56 116.2 120.53 130.35 126.03 143.51 C 130.33 153.81 130.6 175.33 126.47 179.46 C 122.16 183.77 110.3 183.24 105.57 178.52 C 103.37 176.33 101.58 171.45 101.58 167.69 C 101.58 156.32 93.05 143.75 81 137.35 C 72.63 132.91 67.64 131.84 61.04 133.06 C 56.2 133.96 49.04 136.97 45.13 139.76 C 36.9 145.62 30.48 156.82 30.48 165.32 C 30.48 168.57 28.7 173.77 26.53 176.87 C 23.83 180.73 19.97 182.51 14.34 182.51 C 9.81 182.51 4.73 181.14 3.06 179.46 Z"
        fill="#000000"
        stroke-width="2.53968"/>
</svg>
