<svg
    xmlns="http://www.w3.org/2000/svg"
    viewBox="0 0 187 173"
    id="vector">
    <path
        id="path"
        d="M 81.16 168.41 C 73.88 160.59 74.36 147.42 82.22 139.57 C 85.65 136.14 90.85 133.34 93.77 133.34 C 101.06 133.34 113.12 139.88 115.04 144.88 C 117.97 152.51 116.64 160.55 111.35 167.28 C 107.28 172.46 103.85 173.97 96.21 173.97 C 89.32 173.97 84.77 172.29 81.16 168.41 Z M 2.29 101.55 C 0.14 98.95 -0.49 92.53 0.37 81.84 C 1.23 71.09 4.14 61.07 9.39 50.77 C 13.65 42.41 22.09 30.76 28.14 24.9 C 34.2 19.03 46.01 11.03 54.39 7.12 C 67.72 0.9 72.65 0.01 93.76 0.01 C 114.58 0.01 119.86 0.94 132.3 6.77 C 140.23 10.49 152.05 18.44 158.57 24.45 C 174.36 39.01 185.5 61.38 187.14 81.84 C 188 92.54 187.37 98.96 185.22 101.55 C 181.36 106.2 169.01 106.63 165.5 102.23 C 164.11 100.48 162.15 93.38 161.14 86.44 C 160.13 79.5 156.67 68.64 153.44 62.31 C 150.21 55.98 144.32 47.72 140.35 43.95 C 136.38 40.18 127.41 34.53 120.43 31.38 C 94.46 19.68 62.4 26.79 43.3 48.48 C 33.58 59.52 25.19 79.9 25.19 92.48 C 25.19 96.23 23.82 100.67 22.14 102.35 C 17.87 106.62 6.11 106.15 2.3 101.55 Z"
        fill="#000000"
        stroke-width="2.53968"/>
</svg>
