<svg
    xmlns="http://www.w3.org/2000/svg"
    viewBox="0 0 188 174"
    id="vector">
    <path
        id="path"
        d="M 69.66 171.32 C 62.01 169.18 51.09 164.69 45.39 161.35 C 39.69 158.01 30.13 149.97 24.15 143.48 C 18.17 136.99 10.99 126.51 8.2 120.2 C 1.77 105.65 -2.11 79.52 1.24 73.26 C 2.6 70.71 6.59 67.91 10.1 67.03 C 18.8 64.85 26.43 72.06 26.43 82.48 C 26.43 94.51 33.22 112.12 41.93 122.68 C 46.18 127.84 54.77 135.06 61.01 138.71 C 68.85 143.3 77.42 145.76 88.75 146.67 C 100.88 147.64 108.23 146.81 116.98 143.47 C 123.48 140.99 133.38 134.83 138.97 129.79 C 144.56 124.75 151.8 114.91 155.06 107.93 C 158.32 100.95 161 90.95 161.01 85.71 C 161.03 79.6 162.85 74.37 166.11 71.11 C 168.9 68.32 173.3 66.03 175.88 66.03 C 178.46 66.03 182.62 68.3 185.12 71.07 C 188.89 75.23 189.38 78.64 187.97 90.75 C 187.03 98.81 183.05 112.25 179.12 120.63 C 175.19 129.01 166.94 140.9 160.79 147.06 C 154.64 153.21 142.74 161.47 134.36 165.4 C 114.91 174.54 89.47 176.86 69.66 171.32 Z M 80.04 33.65 C 77.1 31.21 74.02 25.76 73.21 21.55 C 72.13 15.97 73.21 12.01 77.2 6.95 C 81.25 1.8 84.91 0.01 91.37 0.01 C 96.69 0.01 102.05 1.99 105.15 5.09 C 108.25 8.19 110.23 13.56 110.23 18.87 C 110.23 25.25 108.44 28.98 103.54 32.84 C 99.86 35.74 94.27 38.1 91.12 38.1 C 87.97 38.1 82.99 36.1 80.04 33.66 Z"
        fill="#000000"
        stroke-width="2.53968"/>
</svg>
