<svg
    xmlns="http://www.w3.org/2000/svg"
    viewBox="0 0 196 106"
    id="vector">
    <path
        id="path"
        d="M 4.2 102.02 C 1.89 99.47 0 95.07 0 92.25 C 0 89.43 2.09 85.24 4.64 82.93 C 8.78 79.18 19.12 78.73 99.57 78.73 C 176.81 78.73 190.31 79.28 193.02 82.55 C 194.76 84.65 196.19 89.22 196.19 92.7 C 196.19 96.18 194.76 100.75 193.02 102.85 C 190.31 106.12 176.76 106.67 99.13 106.67 C 14.46 106.67 8.13 106.36 4.2 102.03 Z M 53.33 25.4 C 50.54 22.61 48.25 18.03 48.25 15.24 C 48.25 12.45 50.54 7.87 53.33 5.08 C 57.97 0.44 61.8 0 97.94 0 C 120.33 0 139.6 1.14 142.38 2.63 C 145.96 4.54 147.29 7.97 147.29 15.24 C 147.29 22.51 145.95 25.93 142.38 27.85 C 139.6 29.34 120.33 30.48 97.94 30.48 C 61.79 30.48 57.97 30.04 53.33 25.4 Z"
        fill="#000000"
        stroke-width="2.53968"/>
</svg>
