<svg
    xmlns="http://www.w3.org/2000/svg"
    viewBox="0 0 38 177"
    id="vector">
    <path
        id="path"
        d="M 8.13 174.73 C 5.98 172.58 5.08 158.06 5.08 125.6 C 5.08 84.18 5.55 79.09 9.72 75.31 C 12.27 73 16.35 71.11 18.78 71.11 C 21.21 71.11 25.4 72.29 28.1 73.74 C 32.69 76.2 33.01 79.51 33.01 124.03 C 33.01 157.71 32.12 172.58 29.96 174.73 C 28.28 176.41 23.37 177.78 19.04 177.78 C 14.71 177.78 9.8 176.41 8.12 174.73 Z M 10.76 35.52 C 5.19 33.23 0 23.93 0 16.23 C 0 14.16 2.81 9.67 6.23 6.24 C 14.71 -2.24 25.95 -2.05 32.83 6.7 C 35.73 10.38 38.09 15.97 38.09 19.12 C 38.09 22.27 36.09 27.21 33.65 30.1 C 31.21 32.99 26.35 35.92 22.86 36.62 C 19.37 37.32 13.92 36.83 10.76 35.53 Z"
        fill="#000000"
        stroke-width="2.53968"/>
</svg>
