<svg
    xmlns="http://www.w3.org/2000/svg"
    viewBox="0 0 115 200"
    id="vector">
    <path
        id="path"
        d="M 4.72 197.18 C 1.82 195.06 0 190.59 0 185.57 C 0 178.43 4.9 172.5 39.12 138.23 L 78.24 99.05 L 39.22 59.97 C 8.84 29.54 0.2 19.43 0.2 14.26 C 0.2 10.61 1.63 5.91 3.37 3.81 C 5.11 1.71 10.08 -0.01 14.4 -0.01 C 21.22 -0.01 28.47 6.19 68.69 46.42 C 107.65 85.38 115.12 94.04 115.12 100.24 C 115.12 106.45 107.65 115.11 68.63 154.13 C 20.3 202.46 15.95 205.39 4.71 197.17 Z"
        fill="#000000"
        stroke-width="2.53968"/>
</svg>
