<svg
    xmlns="http://www.w3.org/2000/svg"
    viewBox="0 0 99 177"
    id="vector">
    <path
        id="path"
        d="M 3.05 174.73 C 1.37 173.05 0 167.95 0 163.39 C 0 157.79 1.6 154.24 4.91 152.47 C 7.61 151.02 23.61 149.84 40.47 149.84 L 71.11 149.84 L 71.11 79.12 C 71.11 13.84 71.47 8.08 75.75 4.2 C 78.3 1.89 82.79 0 85.73 0 C 88.66 0 92.86 1.8 95.05 3.99 C 98.51 7.45 99.04 18.72 99.04 88.89 C 99.04 159.06 98.51 170.33 95.05 173.79 C 91.74 177.1 83.81 177.78 48.57 177.78 C 18.91 177.78 5.16 176.86 3.04 174.73 Z"
        fill="#000000"
        stroke-width="2.53968"/>
</svg>
